<svg id="icon-create-resume" xmlns="http://www.w3.org/2000/svg" width="30" height="32" viewBox="0 0 30 32">
  <g id="File_76_">
    <g id="Group_738" data-name="Group 738">
      <path id="Path_373" data-name="Path 373" d="M26,0H2A2,2,0,0,0,0,2V30a2,2,0,0,0,2,2H18.72a8.026,8.026,0,0,1-1.642-2H3a1,1,0,0,1-1-1V3A1,1,0,0,1,3,2H25a1,1,0,0,1,1,1V18.263a7.945,7.945,0,0,1,2,.816V2A2,2,0,0,0,26,0ZM21,14H7a1,1,0,0,0,0,2H21a1,1,0,0,0,0-2ZM7,18a1,1,0,0,0,0,2h8a1,1,0,0,0,0-2Zm0-6h8a1,1,0,0,0,0-2H7a1,1,0,0,0,0,2ZM21,6H7A1,1,0,0,0,7,8H21a1,1,0,0,0,0-2Z" fill="#ccf1e6"/>
    </g>
  </g>
  <g id="Elipse_11_" transform="translate(18 20)">
    <g id="Group_739" data-name="Group 739">
      <circle id="Ellipse_291" data-name="Ellipse 291" cx="6" cy="6" r="6" fill="#00b884"/>
    </g>
  </g>
  <g id="Plus_3_" transform="translate(21 23)">
    <g id="Group_740" data-name="Group 740">
      <path id="Path_374" data-name="Path 374" d="M47,48H46V47a1,1,0,0,0-2,0v1H43a1,1,0,1,0,0,2h1v1a1,1,0,1,0,2,0V50h1a1,1,0,1,0,0-2Z" transform="translate(-42 -46)" fill="#fff"/>
    </g>
  </g>
</svg>
