<svg xmlns="http://www.w3.org/2000/svg" width="75" height="75" viewBox="0 0 75 75">
  <g id="Group_46892" data-name="Group 46892" transform="translate(6135 -3309)">
    <circle id="Ellipse_304" data-name="Ellipse 304" cx="1.5" cy="1.5" r="1.5" transform="translate(-6135 3309)" fill="#fff" opacity="0.3"/>
    <circle id="Ellipse_304-2" data-name="Ellipse 304" cx="1.5" cy="1.5" r="1.5" transform="translate(-6129 3309)" fill="#fff" opacity="0.3"/>
    <circle id="Ellipse_304-3" data-name="Ellipse 304" cx="1.5" cy="1.5" r="1.5" transform="translate(-6123 3309)" fill="#fff" opacity="0.3"/>
    <circle id="Ellipse_304-4" data-name="Ellipse 304" cx="1.5" cy="1.5" r="1.5" transform="translate(-6117 3309)" fill="#fff" opacity="0.3"/>
    <circle id="Ellipse_304-5" data-name="Ellipse 304" cx="1.5" cy="1.5" r="1.5" transform="translate(-6111 3309)" fill="#fff" opacity="0.3"/>
    <circle id="Ellipse_304-6" data-name="Ellipse 304" cx="1.5" cy="1.5" r="1.5" transform="translate(-6105 3309)" fill="#fff" opacity="0.3"/>
    <circle id="Ellipse_304-7" data-name="Ellipse 304" cx="1.5" cy="1.5" r="1.5" transform="translate(-6099 3309)" fill="#fff" opacity="0.3"/>
    <circle id="Ellipse_304-8" data-name="Ellipse 304" cx="1.5" cy="1.5" r="1.5" transform="translate(-6093 3309)" fill="#fff" opacity="0.3"/>
    <circle id="Ellipse_304-9" data-name="Ellipse 304" cx="1.5" cy="1.5" r="1.5" transform="translate(-6087 3309)" fill="#fff" opacity="0.3"/>
    <circle id="Ellipse_304-10" data-name="Ellipse 304" cx="1.5" cy="1.5" r="1.5" transform="translate(-6081 3309)" fill="#fff" opacity="0.3"/>
    <circle id="Ellipse_304-11" data-name="Ellipse 304" cx="1.5" cy="1.5" r="1.5" transform="translate(-6075 3309)" fill="#fff" opacity="0.3"/>
    <circle id="Ellipse_304-12" data-name="Ellipse 304" cx="1.5" cy="1.5" r="1.5" transform="translate(-6069 3309)" fill="#fff" opacity="0.3"/>
    <circle id="Ellipse_304-13" data-name="Ellipse 304" cx="1.5" cy="1.5" r="1.5" transform="translate(-6063 3309)" fill="#fff" opacity="0.3"/>
    <circle id="Ellipse_304-14" data-name="Ellipse 304" cx="1.5" cy="1.5" r="1.5" transform="translate(-6135 3315)" fill="#fff" opacity="0.3"/>
    <circle id="Ellipse_304-15" data-name="Ellipse 304" cx="1.5" cy="1.5" r="1.5" transform="translate(-6129 3315)" fill="#fff" opacity="0.3"/>
    <circle id="Ellipse_304-16" data-name="Ellipse 304" cx="1.5" cy="1.5" r="1.5" transform="translate(-6123 3315)" fill="#fff" opacity="0.3"/>
    <circle id="Ellipse_304-17" data-name="Ellipse 304" cx="1.5" cy="1.5" r="1.5" transform="translate(-6117 3315)" fill="#fff" opacity="0.3"/>
    <circle id="Ellipse_304-18" data-name="Ellipse 304" cx="1.5" cy="1.5" r="1.5" transform="translate(-6111 3315)" fill="#fff" opacity="0.3"/>
    <circle id="Ellipse_304-19" data-name="Ellipse 304" cx="1.5" cy="1.5" r="1.5" transform="translate(-6105 3315)" fill="#fff" opacity="0.3"/>
    <circle id="Ellipse_304-20" data-name="Ellipse 304" cx="1.5" cy="1.5" r="1.5" transform="translate(-6099 3315)" fill="#fff" opacity="0.3"/>
    <circle id="Ellipse_304-21" data-name="Ellipse 304" cx="1.5" cy="1.5" r="1.5" transform="translate(-6093 3315)" fill="#fff" opacity="0.3"/>
    <circle id="Ellipse_304-22" data-name="Ellipse 304" cx="1.5" cy="1.5" r="1.5" transform="translate(-6087 3315)" fill="#fff" opacity="0.3"/>
    <circle id="Ellipse_304-23" data-name="Ellipse 304" cx="1.5" cy="1.5" r="1.5" transform="translate(-6081 3315)" fill="#fff" opacity="0.3"/>
    <circle id="Ellipse_304-24" data-name="Ellipse 304" cx="1.5" cy="1.5" r="1.5" transform="translate(-6075 3315)" fill="#fff" opacity="0.3"/>
    <circle id="Ellipse_304-25" data-name="Ellipse 304" cx="1.5" cy="1.5" r="1.5" transform="translate(-6069 3315)" fill="#fff" opacity="0.3"/>
    <circle id="Ellipse_304-26" data-name="Ellipse 304" cx="1.5" cy="1.5" r="1.5" transform="translate(-6063 3315)" fill="#fff" opacity="0.3"/>
    <circle id="Ellipse_304-27" data-name="Ellipse 304" cx="1.5" cy="1.5" r="1.5" transform="translate(-6135 3321)" fill="#fff" opacity="0.3"/>
    <circle id="Ellipse_304-28" data-name="Ellipse 304" cx="1.5" cy="1.5" r="1.5" transform="translate(-6129 3321)" fill="#fff" opacity="0.3"/>
    <circle id="Ellipse_304-29" data-name="Ellipse 304" cx="1.5" cy="1.5" r="1.5" transform="translate(-6123 3321)" fill="#fff" opacity="0.3"/>
    <circle id="Ellipse_304-30" data-name="Ellipse 304" cx="1.5" cy="1.5" r="1.5" transform="translate(-6117 3321)" fill="#fff" opacity="0.3"/>
    <circle id="Ellipse_304-31" data-name="Ellipse 304" cx="1.5" cy="1.5" r="1.5" transform="translate(-6111 3321)" fill="#fff" opacity="0.3"/>
    <circle id="Ellipse_304-32" data-name="Ellipse 304" cx="1.5" cy="1.5" r="1.5" transform="translate(-6105 3321)" fill="#fff" opacity="0.3"/>
    <circle id="Ellipse_304-33" data-name="Ellipse 304" cx="1.5" cy="1.5" r="1.5" transform="translate(-6099 3321)" fill="#fff" opacity="0.3"/>
    <circle id="Ellipse_304-34" data-name="Ellipse 304" cx="1.5" cy="1.5" r="1.5" transform="translate(-6093 3321)" fill="#fff" opacity="0.3"/>
    <circle id="Ellipse_304-35" data-name="Ellipse 304" cx="1.5" cy="1.5" r="1.5" transform="translate(-6087 3321)" fill="#fff" opacity="0.3"/>
    <circle id="Ellipse_304-36" data-name="Ellipse 304" cx="1.5" cy="1.5" r="1.5" transform="translate(-6081 3321)" fill="#fff" opacity="0.3"/>
    <circle id="Ellipse_304-37" data-name="Ellipse 304" cx="1.5" cy="1.5" r="1.5" transform="translate(-6075 3321)" fill="#fff" opacity="0.3"/>
    <circle id="Ellipse_304-38" data-name="Ellipse 304" cx="1.5" cy="1.5" r="1.5" transform="translate(-6069 3321)" fill="#fff" opacity="0.3"/>
    <circle id="Ellipse_304-39" data-name="Ellipse 304" cx="1.5" cy="1.5" r="1.5" transform="translate(-6063 3321)" fill="#fff" opacity="0.3"/>
    <circle id="Ellipse_304-40" data-name="Ellipse 304" cx="1.5" cy="1.5" r="1.5" transform="translate(-6135 3327)" fill="#fff" opacity="0.3"/>
    <circle id="Ellipse_304-41" data-name="Ellipse 304" cx="1.5" cy="1.5" r="1.5" transform="translate(-6129 3327)" fill="#fff" opacity="0.3"/>
    <circle id="Ellipse_304-42" data-name="Ellipse 304" cx="1.5" cy="1.5" r="1.5" transform="translate(-6123 3327)" fill="#fff" opacity="0.3"/>
    <circle id="Ellipse_304-43" data-name="Ellipse 304" cx="1.5" cy="1.5" r="1.5" transform="translate(-6117 3327)" fill="#fff" opacity="0.3"/>
    <circle id="Ellipse_304-44" data-name="Ellipse 304" cx="1.5" cy="1.5" r="1.5" transform="translate(-6111 3327)" fill="#fff" opacity="0.3"/>
    <circle id="Ellipse_304-45" data-name="Ellipse 304" cx="1.5" cy="1.5" r="1.5" transform="translate(-6105 3327)" fill="#fff" opacity="0.3"/>
    <circle id="Ellipse_304-46" data-name="Ellipse 304" cx="1.5" cy="1.5" r="1.5" transform="translate(-6099 3327)" fill="#fff" opacity="0.3"/>
    <circle id="Ellipse_304-47" data-name="Ellipse 304" cx="1.5" cy="1.5" r="1.5" transform="translate(-6093 3327)" fill="#fff" opacity="0.3"/>
    <circle id="Ellipse_304-48" data-name="Ellipse 304" cx="1.5" cy="1.5" r="1.5" transform="translate(-6087 3327)" fill="#fff" opacity="0.3"/>
    <circle id="Ellipse_304-49" data-name="Ellipse 304" cx="1.5" cy="1.5" r="1.5" transform="translate(-6081 3327)" fill="#fff" opacity="0.3"/>
    <circle id="Ellipse_304-50" data-name="Ellipse 304" cx="1.5" cy="1.5" r="1.5" transform="translate(-6075 3327)" fill="#fff" opacity="0.3"/>
    <circle id="Ellipse_304-51" data-name="Ellipse 304" cx="1.5" cy="1.5" r="1.5" transform="translate(-6069 3327)" fill="#fff" opacity="0.3"/>
    <circle id="Ellipse_304-52" data-name="Ellipse 304" cx="1.5" cy="1.5" r="1.5" transform="translate(-6063 3327)" fill="#fff" opacity="0.3"/>
    <circle id="Ellipse_304-53" data-name="Ellipse 304" cx="1.5" cy="1.5" r="1.5" transform="translate(-6135 3333)" fill="#fff" opacity="0.3"/>
    <circle id="Ellipse_304-54" data-name="Ellipse 304" cx="1.5" cy="1.5" r="1.5" transform="translate(-6129 3333)" fill="#fff" opacity="0.3"/>
    <circle id="Ellipse_304-55" data-name="Ellipse 304" cx="1.5" cy="1.5" r="1.5" transform="translate(-6123 3333)" fill="#fff" opacity="0.3"/>
    <circle id="Ellipse_304-56" data-name="Ellipse 304" cx="1.5" cy="1.5" r="1.5" transform="translate(-6117 3333)" fill="#fff" opacity="0.3"/>
    <circle id="Ellipse_304-57" data-name="Ellipse 304" cx="1.5" cy="1.5" r="1.5" transform="translate(-6111 3333)" fill="#fff" opacity="0.3"/>
    <circle id="Ellipse_304-58" data-name="Ellipse 304" cx="1.5" cy="1.5" r="1.5" transform="translate(-6105 3333)" fill="#fff" opacity="0.3"/>
    <circle id="Ellipse_304-59" data-name="Ellipse 304" cx="1.5" cy="1.5" r="1.5" transform="translate(-6099 3333)" fill="#fff" opacity="0.3"/>
    <circle id="Ellipse_304-60" data-name="Ellipse 304" cx="1.5" cy="1.5" r="1.5" transform="translate(-6093 3333)" fill="#fff" opacity="0.3"/>
    <circle id="Ellipse_304-61" data-name="Ellipse 304" cx="1.5" cy="1.5" r="1.5" transform="translate(-6087 3333)" fill="#fff" opacity="0.3"/>
    <circle id="Ellipse_304-62" data-name="Ellipse 304" cx="1.5" cy="1.5" r="1.5" transform="translate(-6081 3333)" fill="#fff" opacity="0.3"/>
    <circle id="Ellipse_304-63" data-name="Ellipse 304" cx="1.5" cy="1.5" r="1.5" transform="translate(-6075 3333)" fill="#fff" opacity="0.3"/>
    <circle id="Ellipse_304-64" data-name="Ellipse 304" cx="1.5" cy="1.5" r="1.5" transform="translate(-6069 3333)" fill="#fff" opacity="0.3"/>
    <circle id="Ellipse_304-65" data-name="Ellipse 304" cx="1.5" cy="1.5" r="1.5" transform="translate(-6063 3333)" fill="#fff" opacity="0.3"/>
    <circle id="Ellipse_304-66" data-name="Ellipse 304" cx="1.5" cy="1.5" r="1.5" transform="translate(-6135 3339)" fill="#fff" opacity="0.3"/>
    <circle id="Ellipse_304-67" data-name="Ellipse 304" cx="1.5" cy="1.5" r="1.5" transform="translate(-6129 3339)" fill="#fff" opacity="0.3"/>
    <circle id="Ellipse_304-68" data-name="Ellipse 304" cx="1.5" cy="1.5" r="1.5" transform="translate(-6123 3339)" fill="#fff" opacity="0.3"/>
    <circle id="Ellipse_304-69" data-name="Ellipse 304" cx="1.5" cy="1.5" r="1.5" transform="translate(-6117 3339)" fill="#fff" opacity="0.3"/>
    <circle id="Ellipse_304-70" data-name="Ellipse 304" cx="1.5" cy="1.5" r="1.5" transform="translate(-6111 3339)" fill="#fff" opacity="0.3"/>
    <circle id="Ellipse_304-71" data-name="Ellipse 304" cx="1.5" cy="1.5" r="1.5" transform="translate(-6105 3339)" fill="#fff" opacity="0.3"/>
    <circle id="Ellipse_304-72" data-name="Ellipse 304" cx="1.5" cy="1.5" r="1.5" transform="translate(-6099 3339)" fill="#fff" opacity="0.3"/>
    <circle id="Ellipse_304-73" data-name="Ellipse 304" cx="1.5" cy="1.5" r="1.5" transform="translate(-6093 3339)" fill="#fff" opacity="0.3"/>
    <circle id="Ellipse_304-74" data-name="Ellipse 304" cx="1.5" cy="1.5" r="1.5" transform="translate(-6087 3339)" fill="#fff" opacity="0.3"/>
    <circle id="Ellipse_304-75" data-name="Ellipse 304" cx="1.5" cy="1.5" r="1.5" transform="translate(-6081 3339)" fill="#fff" opacity="0.3"/>
    <circle id="Ellipse_304-76" data-name="Ellipse 304" cx="1.5" cy="1.5" r="1.5" transform="translate(-6075 3339)" fill="#fff" opacity="0.3"/>
    <circle id="Ellipse_304-77" data-name="Ellipse 304" cx="1.5" cy="1.5" r="1.5" transform="translate(-6069 3339)" fill="#fff" opacity="0.3"/>
    <circle id="Ellipse_304-78" data-name="Ellipse 304" cx="1.5" cy="1.5" r="1.5" transform="translate(-6063 3339)" fill="#fff" opacity="0.3"/>
    <circle id="Ellipse_304-79" data-name="Ellipse 304" cx="1.5" cy="1.5" r="1.5" transform="translate(-6135 3345)" fill="#fff" opacity="0.3"/>
    <circle id="Ellipse_304-80" data-name="Ellipse 304" cx="1.5" cy="1.5" r="1.5" transform="translate(-6129 3345)" fill="#fff" opacity="0.3"/>
    <circle id="Ellipse_304-81" data-name="Ellipse 304" cx="1.5" cy="1.5" r="1.5" transform="translate(-6123 3345)" fill="#fff" opacity="0.3"/>
    <circle id="Ellipse_304-82" data-name="Ellipse 304" cx="1.5" cy="1.5" r="1.5" transform="translate(-6117 3345)" fill="#fff" opacity="0.3"/>
    <circle id="Ellipse_304-83" data-name="Ellipse 304" cx="1.5" cy="1.5" r="1.5" transform="translate(-6111 3345)" fill="#fff" opacity="0.3"/>
    <circle id="Ellipse_304-84" data-name="Ellipse 304" cx="1.5" cy="1.5" r="1.5" transform="translate(-6105 3345)" fill="#fff" opacity="0.3"/>
    <circle id="Ellipse_304-85" data-name="Ellipse 304" cx="1.5" cy="1.5" r="1.5" transform="translate(-6099 3345)" fill="#fff" opacity="0.3"/>
    <circle id="Ellipse_304-86" data-name="Ellipse 304" cx="1.5" cy="1.5" r="1.5" transform="translate(-6093 3345)" fill="#fff" opacity="0.3"/>
    <circle id="Ellipse_304-87" data-name="Ellipse 304" cx="1.5" cy="1.5" r="1.5" transform="translate(-6087 3345)" fill="#fff" opacity="0.3"/>
    <circle id="Ellipse_304-88" data-name="Ellipse 304" cx="1.5" cy="1.5" r="1.5" transform="translate(-6081 3345)" fill="#fff" opacity="0.3"/>
    <circle id="Ellipse_304-89" data-name="Ellipse 304" cx="1.5" cy="1.5" r="1.5" transform="translate(-6075 3345)" fill="#fff" opacity="0.3"/>
    <circle id="Ellipse_304-90" data-name="Ellipse 304" cx="1.5" cy="1.5" r="1.5" transform="translate(-6069 3345)" fill="#fff" opacity="0.3"/>
    <circle id="Ellipse_304-91" data-name="Ellipse 304" cx="1.5" cy="1.5" r="1.5" transform="translate(-6063 3345)" fill="#fff" opacity="0.3"/>
    <circle id="Ellipse_304-92" data-name="Ellipse 304" cx="1.5" cy="1.5" r="1.5" transform="translate(-6135 3351)" fill="#fff" opacity="0.3"/>
    <circle id="Ellipse_304-93" data-name="Ellipse 304" cx="1.5" cy="1.5" r="1.5" transform="translate(-6129 3351)" fill="#fff" opacity="0.3"/>
    <circle id="Ellipse_304-94" data-name="Ellipse 304" cx="1.5" cy="1.5" r="1.5" transform="translate(-6123 3351)" fill="#fff" opacity="0.3"/>
    <circle id="Ellipse_304-95" data-name="Ellipse 304" cx="1.5" cy="1.5" r="1.5" transform="translate(-6117 3351)" fill="#fff" opacity="0.3"/>
    <circle id="Ellipse_304-96" data-name="Ellipse 304" cx="1.5" cy="1.5" r="1.5" transform="translate(-6111 3351)" fill="#fff" opacity="0.3"/>
    <circle id="Ellipse_304-97" data-name="Ellipse 304" cx="1.5" cy="1.5" r="1.5" transform="translate(-6105 3351)" fill="#fff" opacity="0.3"/>
    <circle id="Ellipse_304-98" data-name="Ellipse 304" cx="1.5" cy="1.5" r="1.5" transform="translate(-6099 3351)" fill="#fff" opacity="0.3"/>
    <circle id="Ellipse_304-99" data-name="Ellipse 304" cx="1.5" cy="1.5" r="1.5" transform="translate(-6093 3351)" fill="#fff" opacity="0.3"/>
    <circle id="Ellipse_304-100" data-name="Ellipse 304" cx="1.5" cy="1.5" r="1.5" transform="translate(-6087 3351)" fill="#fff" opacity="0.3"/>
    <circle id="Ellipse_304-101" data-name="Ellipse 304" cx="1.5" cy="1.5" r="1.5" transform="translate(-6081 3351)" fill="#fff" opacity="0.3"/>
    <circle id="Ellipse_304-102" data-name="Ellipse 304" cx="1.5" cy="1.5" r="1.5" transform="translate(-6075 3351)" fill="#fff" opacity="0.3"/>
    <circle id="Ellipse_304-103" data-name="Ellipse 304" cx="1.5" cy="1.5" r="1.5" transform="translate(-6069 3351)" fill="#fff" opacity="0.3"/>
    <circle id="Ellipse_304-104" data-name="Ellipse 304" cx="1.5" cy="1.5" r="1.5" transform="translate(-6063 3351)" fill="#fff" opacity="0.3"/>
    <circle id="Ellipse_304-105" data-name="Ellipse 304" cx="1.5" cy="1.5" r="1.5" transform="translate(-6135 3357)" fill="#fff" opacity="0.3"/>
    <circle id="Ellipse_304-106" data-name="Ellipse 304" cx="1.5" cy="1.5" r="1.5" transform="translate(-6129 3357)" fill="#fff" opacity="0.3"/>
    <circle id="Ellipse_304-107" data-name="Ellipse 304" cx="1.5" cy="1.5" r="1.5" transform="translate(-6123 3357)" fill="#fff" opacity="0.3"/>
    <circle id="Ellipse_304-108" data-name="Ellipse 304" cx="1.5" cy="1.5" r="1.5" transform="translate(-6117 3357)" fill="#fff" opacity="0.3"/>
    <circle id="Ellipse_304-109" data-name="Ellipse 304" cx="1.5" cy="1.5" r="1.5" transform="translate(-6111 3357)" fill="#fff" opacity="0.3"/>
    <circle id="Ellipse_304-110" data-name="Ellipse 304" cx="1.5" cy="1.5" r="1.5" transform="translate(-6105 3357)" fill="#fff" opacity="0.3"/>
    <circle id="Ellipse_304-111" data-name="Ellipse 304" cx="1.5" cy="1.5" r="1.5" transform="translate(-6099 3357)" fill="#fff" opacity="0.3"/>
    <circle id="Ellipse_304-112" data-name="Ellipse 304" cx="1.5" cy="1.5" r="1.5" transform="translate(-6093 3357)" fill="#fff" opacity="0.3"/>
    <circle id="Ellipse_304-113" data-name="Ellipse 304" cx="1.5" cy="1.5" r="1.5" transform="translate(-6087 3357)" fill="#fff" opacity="0.3"/>
    <circle id="Ellipse_304-114" data-name="Ellipse 304" cx="1.5" cy="1.5" r="1.5" transform="translate(-6081 3357)" fill="#fff" opacity="0.3"/>
    <circle id="Ellipse_304-115" data-name="Ellipse 304" cx="1.5" cy="1.5" r="1.5" transform="translate(-6075 3357)" fill="#fff" opacity="0.3"/>
    <circle id="Ellipse_304-116" data-name="Ellipse 304" cx="1.5" cy="1.5" r="1.5" transform="translate(-6069 3357)" fill="#fff" opacity="0.3"/>
    <circle id="Ellipse_304-117" data-name="Ellipse 304" cx="1.5" cy="1.5" r="1.5" transform="translate(-6063 3357)" fill="#fff" opacity="0.3"/>
    <circle id="Ellipse_304-118" data-name="Ellipse 304" cx="1.5" cy="1.5" r="1.5" transform="translate(-6135 3363)" fill="#fff" opacity="0.3"/>
    <circle id="Ellipse_304-119" data-name="Ellipse 304" cx="1.5" cy="1.5" r="1.5" transform="translate(-6129 3363)" fill="#fff" opacity="0.3"/>
    <circle id="Ellipse_304-120" data-name="Ellipse 304" cx="1.5" cy="1.5" r="1.5" transform="translate(-6123 3363)" fill="#fff" opacity="0.3"/>
    <circle id="Ellipse_304-121" data-name="Ellipse 304" cx="1.5" cy="1.5" r="1.5" transform="translate(-6117 3363)" fill="#fff" opacity="0.3"/>
    <circle id="Ellipse_304-122" data-name="Ellipse 304" cx="1.5" cy="1.5" r="1.5" transform="translate(-6111 3363)" fill="#fff" opacity="0.3"/>
    <circle id="Ellipse_304-123" data-name="Ellipse 304" cx="1.5" cy="1.5" r="1.5" transform="translate(-6105 3363)" fill="#fff" opacity="0.3"/>
    <circle id="Ellipse_304-124" data-name="Ellipse 304" cx="1.5" cy="1.5" r="1.5" transform="translate(-6099 3363)" fill="#fff" opacity="0.3"/>
    <circle id="Ellipse_304-125" data-name="Ellipse 304" cx="1.5" cy="1.5" r="1.5" transform="translate(-6093 3363)" fill="#fff" opacity="0.3"/>
    <circle id="Ellipse_304-126" data-name="Ellipse 304" cx="1.5" cy="1.5" r="1.5" transform="translate(-6087 3363)" fill="#fff" opacity="0.3"/>
    <circle id="Ellipse_304-127" data-name="Ellipse 304" cx="1.5" cy="1.5" r="1.5" transform="translate(-6081 3363)" fill="#fff" opacity="0.3"/>
    <circle id="Ellipse_304-128" data-name="Ellipse 304" cx="1.5" cy="1.5" r="1.5" transform="translate(-6075 3363)" fill="#fff" opacity="0.3"/>
    <circle id="Ellipse_304-129" data-name="Ellipse 304" cx="1.5" cy="1.5" r="1.5" transform="translate(-6069 3363)" fill="#fff" opacity="0.3"/>
    <circle id="Ellipse_304-130" data-name="Ellipse 304" cx="1.5" cy="1.5" r="1.5" transform="translate(-6063 3363)" fill="#fff" opacity="0.3"/>
    <circle id="Ellipse_304-131" data-name="Ellipse 304" cx="1.5" cy="1.5" r="1.5" transform="translate(-6135 3369)" fill="#fff" opacity="0.3"/>
    <circle id="Ellipse_304-132" data-name="Ellipse 304" cx="1.5" cy="1.5" r="1.5" transform="translate(-6129 3369)" fill="#fff" opacity="0.3"/>
    <circle id="Ellipse_304-133" data-name="Ellipse 304" cx="1.5" cy="1.5" r="1.5" transform="translate(-6123 3369)" fill="#fff" opacity="0.3"/>
    <circle id="Ellipse_304-134" data-name="Ellipse 304" cx="1.5" cy="1.5" r="1.5" transform="translate(-6117 3369)" fill="#fff" opacity="0.3"/>
    <circle id="Ellipse_304-135" data-name="Ellipse 304" cx="1.5" cy="1.5" r="1.5" transform="translate(-6111 3369)" fill="#fff" opacity="0.3"/>
    <circle id="Ellipse_304-136" data-name="Ellipse 304" cx="1.5" cy="1.5" r="1.5" transform="translate(-6105 3369)" fill="#fff" opacity="0.3"/>
    <circle id="Ellipse_304-137" data-name="Ellipse 304" cx="1.5" cy="1.5" r="1.5" transform="translate(-6099 3369)" fill="#fff" opacity="0.3"/>
    <circle id="Ellipse_304-138" data-name="Ellipse 304" cx="1.5" cy="1.5" r="1.5" transform="translate(-6093 3369)" fill="#fff" opacity="0.3"/>
    <circle id="Ellipse_304-139" data-name="Ellipse 304" cx="1.5" cy="1.5" r="1.5" transform="translate(-6087 3369)" fill="#fff" opacity="0.3"/>
    <circle id="Ellipse_304-140" data-name="Ellipse 304" cx="1.5" cy="1.5" r="1.5" transform="translate(-6081 3369)" fill="#fff" opacity="0.3"/>
    <circle id="Ellipse_304-141" data-name="Ellipse 304" cx="1.5" cy="1.5" r="1.5" transform="translate(-6075 3369)" fill="#fff" opacity="0.3"/>
    <circle id="Ellipse_304-142" data-name="Ellipse 304" cx="1.5" cy="1.5" r="1.5" transform="translate(-6069 3369)" fill="#fff" opacity="0.3"/>
    <circle id="Ellipse_304-143" data-name="Ellipse 304" cx="1.5" cy="1.5" r="1.5" transform="translate(-6063 3369)" fill="#fff" opacity="0.3"/>
    <circle id="Ellipse_304-144" data-name="Ellipse 304" cx="1.5" cy="1.5" r="1.5" transform="translate(-6135 3375)" fill="#fff" opacity="0.3"/>
    <circle id="Ellipse_304-145" data-name="Ellipse 304" cx="1.5" cy="1.5" r="1.5" transform="translate(-6129 3375)" fill="#fff" opacity="0.3"/>
    <circle id="Ellipse_304-146" data-name="Ellipse 304" cx="1.5" cy="1.5" r="1.5" transform="translate(-6123 3375)" fill="#fff" opacity="0.3"/>
    <circle id="Ellipse_304-147" data-name="Ellipse 304" cx="1.5" cy="1.5" r="1.5" transform="translate(-6117 3375)" fill="#fff" opacity="0.3"/>
    <circle id="Ellipse_304-148" data-name="Ellipse 304" cx="1.5" cy="1.5" r="1.5" transform="translate(-6111 3375)" fill="#fff" opacity="0.3"/>
    <circle id="Ellipse_304-149" data-name="Ellipse 304" cx="1.5" cy="1.5" r="1.5" transform="translate(-6105 3375)" fill="#fff" opacity="0.3"/>
    <circle id="Ellipse_304-150" data-name="Ellipse 304" cx="1.5" cy="1.5" r="1.5" transform="translate(-6099 3375)" fill="#fff" opacity="0.3"/>
    <circle id="Ellipse_304-151" data-name="Ellipse 304" cx="1.5" cy="1.5" r="1.5" transform="translate(-6093 3375)" fill="#fff" opacity="0.3"/>
    <circle id="Ellipse_304-152" data-name="Ellipse 304" cx="1.5" cy="1.5" r="1.5" transform="translate(-6087 3375)" fill="#fff" opacity="0.3"/>
    <circle id="Ellipse_304-153" data-name="Ellipse 304" cx="1.5" cy="1.5" r="1.5" transform="translate(-6081 3375)" fill="#fff" opacity="0.3"/>
    <circle id="Ellipse_304-154" data-name="Ellipse 304" cx="1.5" cy="1.5" r="1.5" transform="translate(-6075 3375)" fill="#fff" opacity="0.3"/>
    <circle id="Ellipse_304-155" data-name="Ellipse 304" cx="1.5" cy="1.5" r="1.5" transform="translate(-6069 3375)" fill="#fff" opacity="0.3"/>
    <circle id="Ellipse_304-156" data-name="Ellipse 304" cx="1.5" cy="1.5" r="1.5" transform="translate(-6063 3375)" fill="#fff" opacity="0.3"/>
    <circle id="Ellipse_304-157" data-name="Ellipse 304" cx="1.5" cy="1.5" r="1.5" transform="translate(-6135 3381)" fill="#fff" opacity="0.3"/>
    <circle id="Ellipse_304-158" data-name="Ellipse 304" cx="1.5" cy="1.5" r="1.5" transform="translate(-6129 3381)" fill="#fff" opacity="0.3"/>
    <circle id="Ellipse_304-159" data-name="Ellipse 304" cx="1.5" cy="1.5" r="1.5" transform="translate(-6123 3381)" fill="#fff" opacity="0.3"/>
    <circle id="Ellipse_304-160" data-name="Ellipse 304" cx="1.5" cy="1.5" r="1.5" transform="translate(-6117 3381)" fill="#fff" opacity="0.3"/>
    <circle id="Ellipse_304-161" data-name="Ellipse 304" cx="1.5" cy="1.5" r="1.5" transform="translate(-6111 3381)" fill="#fff" opacity="0.3"/>
    <circle id="Ellipse_304-162" data-name="Ellipse 304" cx="1.5" cy="1.5" r="1.5" transform="translate(-6105 3381)" fill="#fff" opacity="0.3"/>
    <circle id="Ellipse_304-163" data-name="Ellipse 304" cx="1.5" cy="1.5" r="1.5" transform="translate(-6099 3381)" fill="#fff" opacity="0.3"/>
    <circle id="Ellipse_304-164" data-name="Ellipse 304" cx="1.5" cy="1.5" r="1.5" transform="translate(-6093 3381)" fill="#fff" opacity="0.3"/>
    <circle id="Ellipse_304-165" data-name="Ellipse 304" cx="1.5" cy="1.5" r="1.5" transform="translate(-6087 3381)" fill="#fff" opacity="0.3"/>
    <circle id="Ellipse_304-166" data-name="Ellipse 304" cx="1.5" cy="1.5" r="1.5" transform="translate(-6081 3381)" fill="#fff" opacity="0.3"/>
    <circle id="Ellipse_304-167" data-name="Ellipse 304" cx="1.5" cy="1.5" r="1.5" transform="translate(-6075 3381)" fill="#fff" opacity="0.3"/>
    <circle id="Ellipse_304-168" data-name="Ellipse 304" cx="1.5" cy="1.5" r="1.5" transform="translate(-6069 3381)" fill="#fff" opacity="0.3"/>
    <circle id="Ellipse_304-169" data-name="Ellipse 304" cx="1.5" cy="1.5" r="1.5" transform="translate(-6063 3381)" fill="#fff" opacity="0.3"/>
  </g>
</svg>
