<svg xmlns="http://www.w3.org/2000/svg" xmlns:xlink="http://www.w3.org/1999/xlink" width="148.532" height="51.394" viewBox="0 0 148.532 51.394">
  <defs>
    <radialGradient id="radial-gradient" cx="0.5" cy="0.5" r="0.5" gradientUnits="objectBoundingBox">
      <stop offset="0" stop-color="#ebf9f5"/>
      <stop offset="0.159" stop-color="#ccf1e6"/>
      <stop offset="0.791" stop-color="#ccf1e6"/>
      <stop offset="1" stop-color="#00b884"/>
    </radialGradient>
    <linearGradient id="linear-gradient" x1="0.864" y1="0.109" x2="0.296" y2="0.743" gradientUnits="objectBoundingBox">
      <stop offset="0" stop-color="#ccf1e6"/>
      <stop offset="1" stop-color="#00b884"/>
    </linearGradient>
    <linearGradient id="linear-gradient-2" x1="0.095" y1="0.059" x2="0.847" y2="0.851" xlink:href="#linear-gradient"/>
  </defs>
  <g id="Group_46983" data-name="Group 46983" transform="translate(-99.999 -216.697)">
    <g id="Group_857" data-name="Group 857" transform="translate(157.51 227.697)">
      <path id="Path_78544" data-name="Path 78544" d="M1.485-27.1a7.515,7.515,0,0,1,.9-3.694,6.4,6.4,0,0,1,2.5-2.529,7.256,7.256,0,0,1,3.634-.906,6.954,6.954,0,0,1,4.262,1.314,6.312,6.312,0,0,1,2.37,3.585H11.4a3.024,3.024,0,0,0-1.185-1.334,3.332,3.332,0,0,0-1.743-.458,3.252,3.252,0,0,0-2.549,1.1A4.238,4.238,0,0,0,4.95-27.1a4.238,4.238,0,0,0,.976,2.927,3.252,3.252,0,0,0,2.549,1.1,3.332,3.332,0,0,0,1.743-.458A3.024,3.024,0,0,0,11.4-24.873h3.744a6.266,6.266,0,0,1-2.37,3.575,6.991,6.991,0,0,1-4.262,1.3A7.256,7.256,0,0,1,4.88-20.9a6.423,6.423,0,0,1-2.5-2.519A7.458,7.458,0,0,1,1.485-27.1ZM22.236-23.28l2.41-7.926H28.27L24.327-20.093h-4.2L16.182-31.206h3.644Zm9.181-9.081a2.064,2.064,0,0,1-1.464-.528,1.71,1.71,0,0,1-.568-1.3,1.732,1.732,0,0,1,.568-1.324,2.064,2.064,0,0,1,1.464-.528,2.037,2.037,0,0,1,1.444.528,1.732,1.732,0,0,1,.568,1.324,1.71,1.71,0,0,1-.568,1.3A2.037,2.037,0,0,1,31.417-32.361Zm1.693,1.155v11.112H29.7V-31.206Zm8.663,8.225v2.888H40.04A4.241,4.241,0,0,1,37.152-21a3.745,3.745,0,0,1-1.036-2.957v-4.421H34.763v-2.828h1.354v-2.708h3.405v2.708h2.23v2.828h-2.23v4.461a.933.933,0,0,0,.239.717,1.166,1.166,0,0,0,.8.219Zm1.215-2.688a6.642,6.642,0,0,1,.647-3.007A4.828,4.828,0,0,1,45.4-30.668a4.6,4.6,0,0,1,2.489-.7,4.276,4.276,0,0,1,2.061.478,3.521,3.521,0,0,1,1.364,1.255v-1.573h3.405v11.112H51.312v-1.573a3.678,3.678,0,0,1-1.384,1.255,4.276,4.276,0,0,1-2.061.478,4.518,4.518,0,0,1-2.469-.707,4.885,4.885,0,0,1-1.762-2.011A6.7,6.7,0,0,1,42.988-25.669Zm8.324.02a2.784,2.784,0,0,0-.707-2.011,2.3,2.3,0,0,0-1.723-.737,2.312,2.312,0,0,0-1.723.727,2.749,2.749,0,0,0-.707,2,2.82,2.82,0,0,0,.707,2.021,2.282,2.282,0,0,0,1.723.747,2.3,2.3,0,0,0,1.723-.737A2.784,2.784,0,0,0,51.312-25.649Zm16.35-.179a8.693,8.693,0,0,1-.06,1H59.9a2.316,2.316,0,0,0,.667,1.583,2.038,2.038,0,0,0,1.444.548,1.79,1.79,0,0,0,1.772-1.075H67.4A4.974,4.974,0,0,1,66.4-21.806a5.035,5.035,0,0,1-1.822,1.374,5.853,5.853,0,0,1-2.45.5,5.96,5.96,0,0,1-2.908-.7,4.958,4.958,0,0,1-1.991-1.991,6.148,6.148,0,0,1-.717-3.027,6.218,6.218,0,0,1,.707-3.027A4.893,4.893,0,0,1,59.2-30.668a6,6,0,0,1,2.927-.7,5.942,5.942,0,0,1,2.868.677,4.862,4.862,0,0,1,1.962,1.932A5.863,5.863,0,0,1,67.662-25.829Zm-3.485-.9a1.751,1.751,0,0,0-.6-1.394,2.2,2.2,0,0,0-1.494-.518,2.157,2.157,0,0,0-1.444.5,2.211,2.211,0,0,0-.727,1.414Zm6.871,6.791a2.064,2.064,0,0,1-1.464-.528,1.71,1.71,0,0,1-.568-1.3,1.764,1.764,0,0,1,.568-1.334,2.042,2.042,0,0,1,1.464-.538,2.015,2.015,0,0,1,1.444.538,1.764,1.764,0,0,1,.568,1.334,1.71,1.71,0,0,1-.568,1.3A2.037,2.037,0,0,1,71.048-19.934Zm3.346-5.735a6.641,6.641,0,0,1,.647-3.007A4.828,4.828,0,0,1,76.8-30.668a4.6,4.6,0,0,1,2.489-.7,4.276,4.276,0,0,1,2.061.478,3.521,3.521,0,0,1,1.364,1.255v-1.573h3.405v11.112H82.718v-1.573a3.677,3.677,0,0,1-1.384,1.255,4.276,4.276,0,0,1-2.061.478,4.519,4.519,0,0,1-2.469-.707,4.885,4.885,0,0,1-1.762-2.011A6.7,6.7,0,0,1,74.393-25.669Zm8.324.02a2.784,2.784,0,0,0-.707-2.011,2.3,2.3,0,0,0-1.723-.737,2.312,2.312,0,0,0-1.723.727,2.749,2.749,0,0,0-.707,2,2.82,2.82,0,0,0,.707,2.021,2.282,2.282,0,0,0,1.723.747,2.3,2.3,0,0,0,1.723-.737A2.784,2.784,0,0,0,82.718-25.649Zm7.588-6.711a2.064,2.064,0,0,1-1.464-.528,1.71,1.71,0,0,1-.568-1.3,1.732,1.732,0,0,1,.568-1.324,2.064,2.064,0,0,1,1.464-.528,2.037,2.037,0,0,1,1.444.528,1.732,1.732,0,0,1,.568,1.324,1.71,1.71,0,0,1-.568,1.3A2.037,2.037,0,0,1,90.305-32.361ZM92-31.206v11.112H88.592V-31.206Z" transform="translate(-1.295 36.045)" fill="#2b2e35"/>
      <path id="Path_78545" data-name="Path 78545" d="M4.028-8.816a1.286,1.286,0,0,1-.153.613,1.148,1.148,0,0,1-.49.469,1.82,1.82,0,0,1-.864.181H1.749v1.728h-.7v-4.259H2.521a1.857,1.857,0,0,1,.83.169,1.172,1.172,0,0,1,.509.457A1.25,1.25,0,0,1,4.028-8.816Zm-1.507.692A.852.852,0,0,0,3.115-8.3a.661.661,0,0,0,.2-.512q0-.7-.79-.7H1.749v1.391ZM9.433-7.6a2.184,2.184,0,0,1-.025.343H6.828a.937.937,0,0,0,.3.65.948.948,0,0,0,.662.245.817.817,0,0,0,.8-.472h.754a1.521,1.521,0,0,1-.555.763,1.627,1.627,0,0,1-1,.3,1.724,1.724,0,0,1-.867-.218,1.548,1.548,0,0,1-.6-.613,1.869,1.869,0,0,1-.218-.916,1.913,1.913,0,0,1,.211-.916,1.487,1.487,0,0,1,.594-.61,1.769,1.769,0,0,1,.879-.214,1.72,1.72,0,0,1,.852.208,1.472,1.472,0,0,1,.582.585A1.762,1.762,0,0,1,9.433-7.6ZM8.7-7.817a.8.8,0,0,0-.276-.619.986.986,0,0,0-.668-.233.9.9,0,0,0-.619.23.96.96,0,0,0-.306.622Zm3.756-.895a1.1,1.1,0,0,1,.407-.4,1.205,1.205,0,0,1,.6-.144v.723h-.178a.851.851,0,0,0-.622.208,1,1,0,0,0-.211.723v1.777h-.7V-9.2h.7ZM16.982-5.77a1.7,1.7,0,0,1-.714-.144,1.254,1.254,0,0,1-.5-.392.978.978,0,0,1-.2-.555H16.3A.493.493,0,0,0,16.5-6.5a.745.745,0,0,0,.469.144.79.79,0,0,0,.457-.113.342.342,0,0,0,.162-.291.3.3,0,0,0-.181-.282,3.388,3.388,0,0,0-.573-.2,5.53,5.53,0,0,1-.619-.2,1.085,1.085,0,0,1-.414-.3.787.787,0,0,1-.175-.533.831.831,0,0,1,.159-.493,1.061,1.061,0,0,1,.457-.352,1.706,1.706,0,0,1,.683-.129,1.411,1.411,0,0,1,.928.291,1.045,1.045,0,0,1,.377.794h-.7a.5.5,0,0,0-.184-.362.687.687,0,0,0-.447-.135.726.726,0,0,0-.423.1.323.323,0,0,0-.147.276.3.3,0,0,0,.1.227.7.7,0,0,0,.239.144q.141.052.417.132a4.533,4.533,0,0,1,.6.2,1.124,1.124,0,0,1,.407.3.786.786,0,0,1,.178.521.874.874,0,0,1-.159.515,1.056,1.056,0,0,1-.45.355A1.678,1.678,0,0,1,16.982-5.77Zm5.153,0a1.729,1.729,0,0,1-.864-.218,1.563,1.563,0,0,1-.607-.613,1.848,1.848,0,0,1-.221-.916,1.813,1.813,0,0,1,.227-.913,1.566,1.566,0,0,1,.619-.613,1.8,1.8,0,0,1,.876-.214,1.8,1.8,0,0,1,.876.214,1.566,1.566,0,0,1,.619.613,1.813,1.813,0,0,1,.227.913,1.775,1.775,0,0,1-.233.913,1.612,1.612,0,0,1-.634.616A1.828,1.828,0,0,1,22.136-5.77Zm0-.607a1.04,1.04,0,0,0,.506-.129.981.981,0,0,0,.383-.386,1.241,1.241,0,0,0,.147-.625,1.267,1.267,0,0,0-.141-.622.951.951,0,0,0-.374-.383,1.022,1.022,0,0,0-.5-.129,1,1,0,0,0-.5.129.919.919,0,0,0-.365.383,1.314,1.314,0,0,0-.135.622,1.185,1.185,0,0,0,.279.843A.921.921,0,0,0,22.136-6.377Zm5.791-2.88a1.514,1.514,0,0,1,.714.165,1.177,1.177,0,0,1,.493.49,1.613,1.613,0,0,1,.178.784v1.992h-.692V-7.713a.98.98,0,0,0-.227-.7.807.807,0,0,0-.619-.242.817.817,0,0,0-.622.242.972.972,0,0,0-.23.7v1.887h-.7V-9.2h.7v.386a1.156,1.156,0,0,1,.438-.325A1.4,1.4,0,0,1,27.926-9.257Zm3.683,1.728a1.869,1.869,0,0,1,.211-.9,1.55,1.55,0,0,1,.576-.61,1.543,1.543,0,0,1,.806-.218,1.474,1.474,0,0,1,.7.156,1.411,1.411,0,0,1,.475.389V-9.2h.7v3.376h-.7v-.5a1.387,1.387,0,0,1-.484.4,1.492,1.492,0,0,1-.7.159,1.485,1.485,0,0,1-.8-.224,1.586,1.586,0,0,1-.573-.625A1.923,1.923,0,0,1,31.609-7.529Zm2.764.012a1.223,1.223,0,0,0-.144-.607,1.011,1.011,0,0,0-.377-.392.986.986,0,0,0-.5-.135,1,1,0,0,0-.5.132.994.994,0,0,0-.377.386,1.205,1.205,0,0,0-.144.6,1.258,1.258,0,0,0,.144.613,1.016,1.016,0,0,0,.38.4.974.974,0,0,0,.5.138.986.986,0,0,0,.5-.135,1.006,1.006,0,0,0,.377-.4A1.24,1.24,0,0,0,34.373-7.517Zm3.965-2.843v4.535h-.7V-10.36Zm8.119.276v3.07a1.187,1.187,0,0,1-.346.9,1.262,1.262,0,0,1-.91.331,1.262,1.262,0,0,1-.91-.331,1.187,1.187,0,0,1-.346-.9h.7a.7.7,0,0,0,.144.447A.5.5,0,0,0,45.2-6.4a.5.5,0,0,0,.411-.169.67.67,0,0,0,.141-.444v-3.07ZM50.7-5.77a1.729,1.729,0,0,1-.864-.218,1.563,1.563,0,0,1-.607-.613,1.848,1.848,0,0,1-.221-.916,1.813,1.813,0,0,1,.227-.913,1.566,1.566,0,0,1,.619-.613,1.8,1.8,0,0,1,.876-.214,1.8,1.8,0,0,1,.876.214,1.566,1.566,0,0,1,.619.613,1.813,1.813,0,0,1,.227.913,1.775,1.775,0,0,1-.233.913,1.612,1.612,0,0,1-.634.616A1.828,1.828,0,0,1,50.7-5.77Zm0-.607a1.04,1.04,0,0,0,.506-.129.981.981,0,0,0,.383-.386,1.241,1.241,0,0,0,.147-.625,1.267,1.267,0,0,0-.141-.622.951.951,0,0,0-.374-.383,1.022,1.022,0,0,0-.5-.129,1,1,0,0,0-.5.129.919.919,0,0,0-.365.383,1.314,1.314,0,0,0-.135.622A1.185,1.185,0,0,0,50-6.674.921.921,0,0,0,50.7-6.377ZM55.483-8.7a1.325,1.325,0,0,1,.487-.4,1.508,1.508,0,0,1,.689-.156,1.555,1.555,0,0,1,.809.214,1.509,1.509,0,0,1,.57.61,1.909,1.909,0,0,1,.208.9,1.946,1.946,0,0,1-.208.91,1.557,1.557,0,0,1-.573.625,1.511,1.511,0,0,1-.806.224,1.522,1.522,0,0,1-.7-.153,1.337,1.337,0,0,1-.481-.392v.49h-.7V-10.36h.7Zm2.053,1.17a1.205,1.205,0,0,0-.144-.6.987.987,0,0,0-.38-.386,1.021,1.021,0,0,0-.506-.132.991.991,0,0,0-.5.135,1,1,0,0,0-.38.392,1.223,1.223,0,0,0-.144.607,1.24,1.24,0,0,0,.144.61,1,1,0,0,0,.38.4.991.991,0,0,0,.5.135.985.985,0,0,0,.506-.138,1.016,1.016,0,0,0,.38-.4A1.258,1.258,0,0,0,57.536-7.529Zm9.682-2.555v4.259h-.7V-7.688h-2v1.863h-.7v-4.259h.7v1.826h2v-1.826Zm5.619.882v3.376h-.7v-.4a1.131,1.131,0,0,1-.432.328,1.37,1.37,0,0,1-.567.119,1.514,1.514,0,0,1-.714-.165,1.2,1.2,0,0,1-.5-.49,1.59,1.59,0,0,1-.181-.784V-9.2h.692v1.881a.98.98,0,0,0,.227.7.807.807,0,0,0,.619.242.817.817,0,0,0,.622-.242.972.972,0,0,0,.23-.7V-9.2ZM77.1-9.257a1.514,1.514,0,0,1,.714.165,1.177,1.177,0,0,1,.493.49,1.613,1.613,0,0,1,.178.784v1.992h-.692V-7.713a.98.98,0,0,0-.227-.7.807.807,0,0,0-.619-.242.817.817,0,0,0-.622.242.972.972,0,0,0-.23.7v1.887h-.7V-9.2h.7v.386a1.156,1.156,0,0,1,.438-.325A1.4,1.4,0,0,1,77.1-9.257Zm4.731.625v1.869a.359.359,0,0,0,.089.273.442.442,0,0,0,.3.083h.429v.582H82.1a1.063,1.063,0,0,1-.723-.221.909.909,0,0,1-.251-.717V-8.632h-.4V-9.2h.4v-.84h.7v.84h.821v.57Zm6.2,1.036a2.184,2.184,0,0,1-.025.343h-2.58a.937.937,0,0,0,.3.65.948.948,0,0,0,.662.245.817.817,0,0,0,.8-.472h.754a1.521,1.521,0,0,1-.555.763,1.627,1.627,0,0,1-1,.3,1.724,1.724,0,0,1-.867-.218,1.548,1.548,0,0,1-.6-.613,1.869,1.869,0,0,1-.218-.916,1.913,1.913,0,0,1,.211-.916,1.487,1.487,0,0,1,.594-.61,1.769,1.769,0,0,1,.879-.214,1.72,1.72,0,0,1,.852.208,1.472,1.472,0,0,1,.582.585A1.763,1.763,0,0,1,88.034-7.6ZM87.3-7.817a.8.8,0,0,0-.276-.619.986.986,0,0,0-.668-.233.9.9,0,0,0-.619.23.96.96,0,0,0-.306.622Zm3.756-.895a1.1,1.1,0,0,1,.407-.4,1.205,1.205,0,0,1,.6-.144v.723h-.178a.851.851,0,0,0-.622.208,1,1,0,0,0-.211.723v1.777h-.7V-9.2h.7Z" transform="translate(-1.05 35.348)" fill="#2b2e35"/>
    </g>
    <g id="Group_856" data-name="Group 856" transform="translate(99.999 216.697)">
      <g id="Group_853" data-name="Group 853" transform="translate(0 0)">
        <path id="Path_411" data-name="Path 411" d="M450.4,336.307a2.109,2.109,0,0,0,.2-.245,2.434,2.434,0,0,0,.234-.436A3.561,3.561,0,0,1,450.4,336.307Zm-4.843-5.258a3.6,3.6,0,0,1,1.38-.56,2.4,2.4,0,0,0-.877.248A3.771,3.771,0,0,0,445.56,331.05Z" transform="translate(-406.411 -292.566)" fill="#009e71" opacity="0.21"/>
        <path id="Path_412" data-name="Path 412" d="M241.345,130.761a3.569,3.569,0,0,1-.354,1.558.127.127,0,0,1-.009.022,3.557,3.557,0,0,1-.431.681l0,0c-.069.077-.143.149-.217.222-.124.121-.248.241-.374.36a.019.019,0,0,1-.008.008A25.7,25.7,0,1,1,222.257,89.28q1.026,0,2.05.08l.162.014a25.894,25.894,0,0,1,11.487,3.849c.726.454.992,1.655,1.684,2.24,1.112.616,1.586.981,1.586,2.341,0,2-.788,3.726-2.785,3.726a3.616,3.616,0,0,1-1.074-.162l-.008,0a8.61,8.61,0,0,1-2.472-1.475,21.678,21.678,0,0,0-3.273-1.792,17.837,17.837,0,0,0-7.129-1.509,18.336,18.336,0,1,0,0,36.671q.924,0,1.846-.091a18.855,18.855,0,0,0,10.539-4.714c.168-.146.335-.294.508-.436.093-.077.186-.151.281-.22a.546.546,0,0,1,.049-.035,3.6,3.6,0,0,1,1.38-.56,3.438,3.438,0,0,1,.64-.058A3.616,3.616,0,0,1,241.345,130.761Z" transform="translate(-196.56 -89.28)" fill="url(#radial-gradient)"/>
        <path id="Path_413" data-name="Path 413" d="M443.46,334.49a3.154,3.154,0,0,1,.281-.22C443.646,334.339,443.553,334.413,443.46,334.49Z" transform="translate(-404.641 -295.751)" fill="#009e71"/>
        <path id="Path_414" data-name="Path 414" d="M473.161,367.52a3.505,3.505,0,0,1-.591.582c.126-.119.25-.239.374-.36C473.018,367.669,473.092,367.6,473.161,367.52Z" transform="translate(-429.174 -323.774)" fill="#009e71"/>
      </g>
      <path id="Path_415" data-name="Path 415" d="M345.764,104.314,330.84,126.03l4.887,5.566c-.047-.054,1.258-1.687,1.379-1.85l1.407-1.888,2.815-3.775,5.629-7.551c1.394-1.869,2.811-3.721,4.2-5.592.4-.544.844-1.059,1.21-1.632a8.9,8.9,0,0,0,1.389-3.65,6.708,6.708,0,0,0-1.534-5.586,23.394,23.394,0,0,0-3.465-2.418c-.545-.323-1.091-.635-1.615-.9-.261-.134-.53-.255-.773-.369-.8-.377-1.378-.6-1.378-.6a6.9,6.9,0,0,1,2.062,3.844A9.643,9.643,0,0,1,345.764,104.314Z" transform="translate(-309.728 -93.938)" fill="url(#linear-gradient)"/>
      <path id="Path_416" data-name="Path 416" d="M288.4,216.451l5.083-6.815-11.644-12.794a4.113,4.113,0,0,0-5.81-.273h0a4.113,4.113,0,0,0-.273,5.81Z" transform="translate(-262.401 -178.798)" fill="url(#linear-gradient-2)"/>
    </g>
  </g>
</svg>
