<svg id="svgexport-7" xmlns="http://www.w3.org/2000/svg" width="19.627" height="19.627" viewBox="0 0 19.627 19.627">
  <path id="Path_334" data-name="Path 334" d="M4.35,144.828l-.683,2.55-2.5.053a9.831,9.831,0,0,1-.072-9.164h0l2.223.408.974,2.21a5.857,5.857,0,0,0,.055,3.943Z" transform="translate(0 -132.968)" fill="#fbbb00"/>
  <path id="Path_335" data-name="Path 335" d="M271.054,208.176a9.81,9.81,0,0,1-3.5,9.486h0l-2.8-.143-.4-2.474a5.849,5.849,0,0,0,2.516-2.987h-5.248v-3.882h9.426Z" transform="translate(-251.599 -200.196)" fill="#518ef8"/>
  <path id="Path_336" data-name="Path 336" d="M45.3,315.014h0a9.817,9.817,0,0,1-14.788-3l3.18-2.6A5.836,5.836,0,0,0,42.1,312.4Z" transform="translate(-29.339 -297.548)" fill="#28b446"/>
  <path id="Path_337" data-name="Path 337" d="M43.6,2.259l-3.179,2.6a5.836,5.836,0,0,0-8.6,3.056L28.625,5.3h0A9.815,9.815,0,0,1,43.6,2.259Z" transform="translate(-27.527)" fill="#f14336"/>
</svg>
