<svg id="svgexport-7" xmlns="http://www.w3.org/2000/svg" width="32.501" height="32.501" viewBox="0 0 32.501 32.501">
  <path id="Path_334" data-name="Path 334" d="M7.2,149.132l-1.131,4.223-4.135.087a16.279,16.279,0,0,1-.12-15.174h0l3.681.675L7.112,142.6a9.7,9.7,0,0,0,.091,6.53Z" transform="translate(0 -129.491)" fill="#fbbb00"/>
  <path id="Path_335" data-name="Path 335" d="M277.237,208.176a16.244,16.244,0,0,1-5.793,15.708h0l-4.637-.237-.656-4.1a9.685,9.685,0,0,0,4.167-4.946h-8.69v-6.429h15.609Z" transform="translate(-245.02 -194.961)" fill="#518ef8"/>
  <path id="Path_336" data-name="Path 336" d="M55,318.69h0a16.256,16.256,0,0,1-24.487-4.972l5.266-4.311A9.665,9.665,0,0,0,49.7,314.357Z" transform="translate(-28.572 -289.768)" fill="#28b446"/>
  <path id="Path_337" data-name="Path 337" d="M53.43,3.741l-5.264,4.31a9.663,9.663,0,0,0-14.247,5.06L28.625,8.777h0A16.254,16.254,0,0,1,53.43,3.741Z" transform="translate(-26.807)" fill="#f14336"/>
</svg>
