<svg id="Component_29_1" data-name="Component 29 – 1" xmlns="http://www.w3.org/2000/svg" width="207.956" height="67.575" viewBox="0 0 207.956 67.575">
  <path id="Path_78544" data-name="Path 78544" d="M1.485-15.616a17.168,17.168,0,0,1,2.047-8.44,14.633,14.633,0,0,1,5.71-5.778,16.578,16.578,0,0,1,8.3-2.07,15.888,15.888,0,0,1,9.737,3,14.421,14.421,0,0,1,5.414,8.19H24.143a6.908,6.908,0,0,0-2.707-3.048,7.612,7.612,0,0,0-3.981-1.046,7.431,7.431,0,0,0-5.824,2.5A9.683,9.683,0,0,0,9.4-15.616a9.683,9.683,0,0,0,2.229,6.688,7.431,7.431,0,0,0,5.824,2.5,7.612,7.612,0,0,0,3.981-1.046,6.908,6.908,0,0,0,2.707-3.048H32.7a14.316,14.316,0,0,1-5.414,8.167A15.972,15.972,0,0,1,17.546.627a16.578,16.578,0,0,1-8.3-2.07A14.674,14.674,0,0,1,3.532-7.2,17.039,17.039,0,0,1,1.485-15.616ZM48.895-6.88,54.4-24.989h8.281L53.672.4h-9.6L35.063-24.989H43.39ZM69.87-27.628a4.716,4.716,0,0,1-3.344-1.206,3.907,3.907,0,0,1-1.3-2.98,3.958,3.958,0,0,1,1.3-3.026,4.716,4.716,0,0,1,3.344-1.206,4.654,4.654,0,0,1,3.3,1.206,3.958,3.958,0,0,1,1.3,3.026,3.907,3.907,0,0,1-1.3,2.98A4.654,4.654,0,0,1,69.87-27.628Zm3.867,2.639V.4h-7.78V-24.989ZM93.529-6.2V.4H89.571a9.689,9.689,0,0,1-6.6-2.07q-2.366-2.07-2.366-6.757v-10.1H77.514v-6.461h3.094v-6.188h7.78v6.188h5.1v6.461h-5.1V-8.336A2.132,2.132,0,0,0,88.934-6.7a2.665,2.665,0,0,0,1.82.5ZM96.3-12.34a15.174,15.174,0,0,1,1.479-6.87,11.03,11.03,0,0,1,4.027-4.55,10.512,10.512,0,0,1,5.687-1.592,9.77,9.77,0,0,1,4.709,1.092,8.044,8.044,0,0,1,3.117,2.866v-3.594h7.78V.4h-7.78V-3.195a8.4,8.4,0,0,1-3.162,2.866A9.77,9.77,0,0,1,107.452.764,10.323,10.323,0,0,1,101.81-.852a11.161,11.161,0,0,1-4.027-4.6A15.318,15.318,0,0,1,96.3-12.34Zm19.019.045a6.361,6.361,0,0,0-1.615-4.6,5.248,5.248,0,0,0-3.936-1.683,5.282,5.282,0,0,0-3.936,1.661,6.28,6.28,0,0,0-1.615,4.573,6.443,6.443,0,0,0,1.615,4.618,5.215,5.215,0,0,0,3.936,1.706A5.248,5.248,0,0,0,113.708-7.7,6.361,6.361,0,0,0,115.323-12.295Zm37.355-.409a19.86,19.86,0,0,1-.137,2.275H134.934a5.291,5.291,0,0,0,1.524,3.617,4.657,4.657,0,0,0,3.3,1.251,4.089,4.089,0,0,0,4.049-2.457h8.281a11.363,11.363,0,0,1-2.3,4.5,11.5,11.5,0,0,1-4.163,3.139,13.372,13.372,0,0,1-5.6,1.137,13.618,13.618,0,0,1-6.643-1.592,11.327,11.327,0,0,1-4.55-4.55,14.047,14.047,0,0,1-1.638-6.916,14.207,14.207,0,0,1,1.615-6.916,11.18,11.18,0,0,1,4.527-4.55,13.714,13.714,0,0,1,6.688-1.592,13.576,13.576,0,0,1,6.552,1.547,11.108,11.108,0,0,1,4.482,4.413A13.4,13.4,0,0,1,152.678-12.7Zm-7.962-2.047a4,4,0,0,0-1.365-3.185,5.025,5.025,0,0,0-3.412-1.183,4.928,4.928,0,0,0-3.3,1.137,5.052,5.052,0,0,0-1.661,3.23ZM160.413.764a4.716,4.716,0,0,1-3.344-1.206,3.907,3.907,0,0,1-1.3-2.98,4.029,4.029,0,0,1,1.3-3.048A4.665,4.665,0,0,1,160.413-7.7a4.6,4.6,0,0,1,3.3,1.228,4.029,4.029,0,0,1,1.3,3.048,3.907,3.907,0,0,1-1.3,2.98A4.654,4.654,0,0,1,160.413.764Zm7.644-13.1a15.174,15.174,0,0,1,1.479-6.87,11.03,11.03,0,0,1,4.027-4.55,10.512,10.512,0,0,1,5.687-1.592,9.77,9.77,0,0,1,4.709,1.092,8.044,8.044,0,0,1,3.117,2.866v-3.594h7.78V.4h-7.78V-3.195a8.4,8.4,0,0,1-3.162,2.866A9.77,9.77,0,0,1,179.2.764a10.323,10.323,0,0,1-5.642-1.615,11.161,11.161,0,0,1-4.027-4.6A15.318,15.318,0,0,1,168.057-12.34Zm19.019.045a6.361,6.361,0,0,0-1.615-4.6,5.248,5.248,0,0,0-3.936-1.683,5.282,5.282,0,0,0-3.936,1.661,6.28,6.28,0,0,0-1.615,4.573,6.443,6.443,0,0,0,1.615,4.618,5.215,5.215,0,0,0,3.936,1.706A5.248,5.248,0,0,0,185.46-7.7,6.361,6.361,0,0,0,187.075-12.295ZM204.41-27.628a4.716,4.716,0,0,1-3.344-1.206,3.907,3.907,0,0,1-1.3-2.98,3.958,3.958,0,0,1,1.3-3.026,4.716,4.716,0,0,1,3.344-1.206,4.654,4.654,0,0,1,3.3,1.206,3.958,3.958,0,0,1,1.3,3.026,3.907,3.907,0,0,1-1.3,2.98A4.654,4.654,0,0,1,204.41-27.628Zm3.867,2.639V.4H200.5V-24.989Z" transform="translate(-1.05 36.045)" fill="#2b2e35"/>
  <path id="Path_78545" data-name="Path 78545" d="M7.854-6.832a2.938,2.938,0,0,1-.35,1.4,2.623,2.623,0,0,1-1.12,1.071,4.157,4.157,0,0,1-1.974.413H2.646V0H1.05V-9.73H4.41a4.242,4.242,0,0,1,1.9.385A2.677,2.677,0,0,1,7.469-8.3,2.857,2.857,0,0,1,7.854-6.832ZM4.41-5.25a1.946,1.946,0,0,0,1.358-.413,1.511,1.511,0,0,0,.448-1.169q0-1.6-1.806-1.6H2.646V-5.25ZM20.2-4.046a4.99,4.99,0,0,1-.056.784H14.252a2.141,2.141,0,0,0,.686,1.484,2.165,2.165,0,0,0,1.512.56A1.867,1.867,0,0,0,18.27-2.3h1.722A3.475,3.475,0,0,1,18.725-.553,3.717,3.717,0,0,1,16.45.126a3.94,3.94,0,0,1-1.981-.5,3.536,3.536,0,0,1-1.372-1.4,4.271,4.271,0,0,1-.5-2.093,4.371,4.371,0,0,1,.483-2.093A3.4,3.4,0,0,1,14.441-7.35a4.042,4.042,0,0,1,2.009-.49,3.929,3.929,0,0,1,1.946.476,3.363,3.363,0,0,1,1.33,1.337A4.027,4.027,0,0,1,20.2-4.046Zm-1.666-.5a1.816,1.816,0,0,0-.63-1.414A2.252,2.252,0,0,0,16.38-6.5a2.05,2.05,0,0,0-1.414.525,2.194,2.194,0,0,0-.7,1.421Zm8.582-2.044a2.507,2.507,0,0,1,.931-.917,2.754,2.754,0,0,1,1.379-.329v1.652h-.406a1.944,1.944,0,0,0-1.421.476,2.276,2.276,0,0,0-.483,1.652V0h-1.6V-7.714h1.6ZM37.45.126A3.886,3.886,0,0,1,35.819-.2a2.865,2.865,0,0,1-1.141-.9,2.233,2.233,0,0,1-.448-1.267h1.652a1.127,1.127,0,0,0,.469.819,1.7,1.7,0,0,0,1.071.329,1.8,1.8,0,0,0,1.043-.259.782.782,0,0,0,.371-.665.683.683,0,0,0-.413-.644,7.742,7.742,0,0,0-1.309-.462A12.634,12.634,0,0,1,35.7-3.71a2.479,2.479,0,0,1-.945-.686,1.8,1.8,0,0,1-.4-1.218,1.9,1.9,0,0,1,.364-1.127,2.424,2.424,0,0,1,1.043-.805,3.9,3.9,0,0,1,1.561-.294,3.223,3.223,0,0,1,2.121.665,2.388,2.388,0,0,1,.861,1.813h-1.6a1.137,1.137,0,0,0-.42-.826A1.571,1.571,0,0,0,37.268-6.5a1.659,1.659,0,0,0-.966.238.737.737,0,0,0-.336.63.682.682,0,0,0,.224.518,1.6,1.6,0,0,0,.546.329q.322.119.952.3a10.356,10.356,0,0,1,1.379.455A2.567,2.567,0,0,1,40-3.346a1.8,1.8,0,0,1,.406,1.19A2,2,0,0,1,40.04-.98a2.413,2.413,0,0,1-1.029.812A3.834,3.834,0,0,1,37.45.126Zm11.774,0a3.951,3.951,0,0,1-1.974-.5,3.57,3.57,0,0,1-1.386-1.4,4.223,4.223,0,0,1-.5-2.093,4.142,4.142,0,0,1,.518-2.086,3.578,3.578,0,0,1,1.414-1.4,4.1,4.1,0,0,1,2-.49,4.1,4.1,0,0,1,2,.49,3.578,3.578,0,0,1,1.414,1.4,4.142,4.142,0,0,1,.518,2.086A4.056,4.056,0,0,1,52.7-1.778,3.684,3.684,0,0,1,51.247-.371,4.176,4.176,0,0,1,49.224.126Zm0-1.386a2.375,2.375,0,0,0,1.155-.294,2.24,2.24,0,0,0,.875-.882,2.836,2.836,0,0,0,.336-1.428,2.9,2.9,0,0,0-.322-1.421,2.174,2.174,0,0,0-.854-.875,2.336,2.336,0,0,0-1.148-.294,2.3,2.3,0,0,0-1.141.294,2.1,2.1,0,0,0-.833.875,3,3,0,0,0-.308,1.421,2.707,2.707,0,0,0,.637,1.925A2.1,2.1,0,0,0,49.224-1.26Zm13.23-6.58a3.459,3.459,0,0,1,1.631.378,2.688,2.688,0,0,1,1.127,1.12,3.684,3.684,0,0,1,.406,1.792V0H64.036V-4.312A2.239,2.239,0,0,0,63.518-5.9,1.844,1.844,0,0,0,62.1-6.454a1.866,1.866,0,0,0-1.421.553,2.22,2.22,0,0,0-.525,1.589V0h-1.6V-7.714h1.6v.882a2.642,2.642,0,0,1,1-.742A3.2,3.2,0,0,1,62.454-7.84Zm8.414,3.948a4.269,4.269,0,0,1,.483-2.058,3.54,3.54,0,0,1,1.316-1.393,3.526,3.526,0,0,1,1.841-.5,3.367,3.367,0,0,1,1.589.357,3.225,3.225,0,0,1,1.085.889v-1.12h1.61V0h-1.61V-1.148a3.17,3.17,0,0,1-1.106.91,3.409,3.409,0,0,1-1.6.364,3.392,3.392,0,0,1-1.82-.511,3.624,3.624,0,0,1-1.309-1.428A4.393,4.393,0,0,1,70.868-3.892Zm6.314.028a2.793,2.793,0,0,0-.329-1.386,2.309,2.309,0,0,0-.861-.9,2.253,2.253,0,0,0-1.148-.308,2.293,2.293,0,0,0-1.148.3,2.27,2.27,0,0,0-.861.882,2.754,2.754,0,0,0-.329,1.379,2.873,2.873,0,0,0,.329,1.4,2.321,2.321,0,0,0,.868.917,2.226,2.226,0,0,0,1.141.315,2.253,2.253,0,0,0,1.148-.308,2.3,2.3,0,0,0,.861-.9A2.833,2.833,0,0,0,77.182-3.864Zm9.058-6.5V0h-1.6V-10.36Zm18.55.63v7.014A2.712,2.712,0,0,1,104-.658,2.884,2.884,0,0,1,101.92.1a2.884,2.884,0,0,1-2.079-.756,2.712,2.712,0,0,1-.791-2.058h1.61a1.6,1.6,0,0,0,.329,1.022,1.143,1.143,0,0,0,.931.378,1.154,1.154,0,0,0,.938-.385,1.53,1.53,0,0,0,.322-1.015V-9.73ZM114.478.126a3.951,3.951,0,0,1-1.974-.5,3.57,3.57,0,0,1-1.386-1.4,4.223,4.223,0,0,1-.5-2.093,4.142,4.142,0,0,1,.518-2.086,3.578,3.578,0,0,1,1.414-1.4,4.1,4.1,0,0,1,2-.49,4.1,4.1,0,0,1,2,.49,3.578,3.578,0,0,1,1.414,1.4,4.142,4.142,0,0,1,.518,2.086,4.056,4.056,0,0,1-.532,2.086A3.684,3.684,0,0,1,116.5-.371,4.176,4.176,0,0,1,114.478.126Zm0-1.386a2.375,2.375,0,0,0,1.155-.294,2.24,2.24,0,0,0,.875-.882,2.836,2.836,0,0,0,.336-1.428,2.9,2.9,0,0,0-.322-1.421,2.174,2.174,0,0,0-.854-.875,2.335,2.335,0,0,0-1.148-.294,2.3,2.3,0,0,0-1.141.294,2.1,2.1,0,0,0-.833.875,3,3,0,0,0-.308,1.421,2.707,2.707,0,0,0,.637,1.925A2.1,2.1,0,0,0,114.478-1.26Zm10.934-5.306a3.027,3.027,0,0,1,1.113-.917A3.444,3.444,0,0,1,128.1-7.84a3.553,3.553,0,0,1,1.848.49,3.447,3.447,0,0,1,1.3,1.393,4.362,4.362,0,0,1,.476,2.065,4.446,4.446,0,0,1-.476,2.079,3.557,3.557,0,0,1-1.309,1.428A3.452,3.452,0,0,1,128.1.126a3.477,3.477,0,0,1-1.589-.35,3.055,3.055,0,0,1-1.1-.9V0h-1.6V-10.36h1.6Zm4.69,2.674a2.754,2.754,0,0,0-.329-1.379,2.255,2.255,0,0,0-.868-.882,2.332,2.332,0,0,0-1.155-.3,2.265,2.265,0,0,0-1.141.308,2.293,2.293,0,0,0-.868.9,2.793,2.793,0,0,0-.329,1.386,2.833,2.833,0,0,0,.329,1.393,2.282,2.282,0,0,0,.868.9,2.265,2.265,0,0,0,1.141.308,2.251,2.251,0,0,0,1.155-.315,2.321,2.321,0,0,0,.868-.917A2.873,2.873,0,0,0,130.1-3.892Zm22.12-5.838V0h-1.6V-4.256h-4.578V0h-1.6V-9.73h1.6v4.172h4.578V-9.73ZM165.06-7.714V0h-1.6V-.91a2.583,2.583,0,0,1-.987.749,3.13,3.13,0,0,1-1.295.273,3.459,3.459,0,0,1-1.631-.378,2.731,2.731,0,0,1-1.134-1.12A3.633,3.633,0,0,1,158-3.178V-7.714h1.582v4.3a2.239,2.239,0,0,0,.518,1.589,1.844,1.844,0,0,0,1.414.553,1.866,1.866,0,0,0,1.421-.553,2.22,2.22,0,0,0,.525-1.589v-4.3ZM174.8-7.84a3.459,3.459,0,0,1,1.631.378,2.688,2.688,0,0,1,1.127,1.12,3.684,3.684,0,0,1,.406,1.792V0h-1.582V-4.312a2.239,2.239,0,0,0-.518-1.589,1.844,1.844,0,0,0-1.414-.553,1.866,1.866,0,0,0-1.421.553,2.22,2.22,0,0,0-.525,1.589V0h-1.6V-7.714h1.6v.882a2.642,2.642,0,0,1,1-.742A3.2,3.2,0,0,1,174.8-7.84Zm10.808,1.428v4.27a.82.82,0,0,0,.2.623,1.009,1.009,0,0,0,.693.189h.98V0h-1.26a2.429,2.429,0,0,1-1.652-.5A2.077,2.077,0,0,1,184-2.142v-4.27h-.91v-1.3H184V-9.632h1.61v1.918h1.876v1.3ZM199.78-4.046a4.989,4.989,0,0,1-.056.784H193.83a2.141,2.141,0,0,0,.686,1.484,2.165,2.165,0,0,0,1.512.56,1.867,1.867,0,0,0,1.82-1.078h1.722A3.475,3.475,0,0,1,198.3-.553a3.717,3.717,0,0,1-2.275.679,3.94,3.94,0,0,1-1.981-.5,3.536,3.536,0,0,1-1.372-1.4,4.271,4.271,0,0,1-.5-2.093,4.371,4.371,0,0,1,.483-2.093,3.4,3.4,0,0,1,1.358-1.393,4.042,4.042,0,0,1,2.009-.49,3.929,3.929,0,0,1,1.946.476,3.363,3.363,0,0,1,1.33,1.337A4.027,4.027,0,0,1,199.78-4.046Zm-1.666-.5a1.816,1.816,0,0,0-.63-1.414,2.252,2.252,0,0,0-1.526-.532,2.05,2.05,0,0,0-1.414.525,2.194,2.194,0,0,0-.7,1.421ZM206.7-6.594a2.507,2.507,0,0,1,.931-.917,2.754,2.754,0,0,1,1.379-.329v1.652H208.6a1.944,1.944,0,0,0-1.421.476A2.276,2.276,0,0,0,206.7-4.06V0h-1.6V-7.714h1.6Z" transform="translate(-1.05 67.449)" fill="#2b2e35"/>
</svg>
